<svg width="20" height="20" viewBox="0 0 20 20" fill="none" xmlns="http://www.w3.org/2000/svg">
  <path
    d="M3.57667 7.74331C3.65408 7.6657 3.74604 7.60413 3.84728 7.56212C3.94852 7.52011 4.05706 7.49849 4.16667 7.49849C4.27628 7.49849 4.38482 7.52011 4.48606 7.56212C4.5873 7.60413 4.67926 7.6657 4.75667 7.74331L10 12.9883L15.2433 7.74331C15.3998 7.58683 15.612 7.49892 15.8333 7.49892C16.0546 7.49892 16.2669 7.58683 16.4233 7.74331C16.5798 7.89979 16.6677 8.11202 16.6677 8.33331C16.6677 8.5546 16.5798 8.76683 16.4233 8.92331L10.59 14.7566C10.5126 14.8342 10.4206 14.8958 10.3194 14.9378C10.2182 14.9798 10.1096 15.0015 10 15.0015C9.89039 15.0015 9.78186 14.9798 9.68061 14.9378C9.57937 14.8958 9.48741 14.8342 9.41 14.7566L3.57667 8.92331C3.49907 8.8459 3.43749 8.75394 3.39548 8.6527C3.35347 8.55146 3.33185 8.44292 3.33185 8.33331C3.33185 8.2237 3.35347 8.11516 3.39548 8.01392C3.43749 7.91268 3.49907 7.82072 3.57667 7.74331V7.74331Z"
    fill="#F0EFFB" />
</svg>