<svg width="63" height="55" viewBox="0 0 63 55" fill="none" xmlns="http://www.w3.org/2000/svg">
<path d="M38.0288 0H37.703C19.1841 0 0.36655 14.4458 0 42.2648L0.216756 52.9634C0.216756 54.085 1.1316 55 2.00938 55H20.5689C15.67 47.2417 15.2836 36.1304 20.6777 26.7329C23.3624 22.0828 27.4441 18.1234 32.4081 16.0072C34.652 15.01 37.3424 14.5188 39.346 14.3013L41.6541 14.2965C43.134 14.3508 44.6682 15.0704 46.2024 16.4552C47.2884 17.4192 47.9131 18.8446 48.2933 20.4604C48.9043 23.1215 48.782 26.2713 48.6869 28.6473C48.6056 30.9147 48.5512 32.286 49.0127 33.2906C49.5423 34.4311 50.737 34.9742 52.0404 34.689C55.0817 34.0236 60.7024 27.4118 60.7432 19.7137C60.7972 8.22755 51.4562 0.122224 38.0288 0Z" fill="#291D72"/>
<path d="M26.9908 30.738C27.2768 25.3048 29.4147 19.7931 33.9693 16.7402C35.7207 15.5591 37.8388 14.7444 40.364 14.4051C40.7851 14.31 41.2193 14.2828 41.6538 14.2965L46.2022 14.2285L43.4461 10.4541C42.7337 10.2403 42.0147 10.1554 41.3824 10.1554C30.8321 10.1554 22.2491 15.8672 17.1477 24.7098C11.5625 34.4154 11.3296 46.0487 15.8986 54.9998H42.1969C32.115 51.9703 26.4833 40.8683 26.9908 30.738Z" fill="#402EB2"/>
<path d="M60.3899 42.7807C46.4329 42.7807 37.0241 37.9066 34.5802 29.3804C33.7249 26.3799 33.8877 23.393 34.6754 20.8812C35.7168 17.5478 38.1581 14.187 41.6537 14.2963C43.1337 14.3506 44.6678 15.0702 46.2021 16.455C47.2881 17.419 47.9127 18.8444 48.293 20.4602C48.6458 19.5777 48.8494 18.6274 48.8494 17.6226C48.8494 14.2149 46.5687 11.35 43.4458 10.454C40.1035 9.57438 30.024 11.2056 25.3477 20.7453C23.9493 23.5557 23.1076 26.8549 22.931 30.5342C22.4721 39.4254 26.177 49.2186 33.5347 54.9997H60.3898C61.5168 54.9997 62.4264 54.0901 62.4264 52.9631V44.8169C62.4265 43.6903 61.517 42.7807 60.3899 42.7807Z" fill="#A79EE6"/>
</svg>
